/* XPM */
static char *result[] = {
/* columns rows colors chars-per-pixel */
"64 64 201 2 ",
"   c #391E08",
".  c #3C230F",
"X  c #43240D",
"o  c #47280E",
"O  c #51240F",
"+  c #4C2613",
"@  c #462A15",
"#  c #4D2B15",
"$  c #462B1A",
"%  c #4B2D1B",
"&  c #532612",
"*  c #5B2713",
"=  c #552914",
"-  c #5C2914",
";  c #522D1A",
":  c #4D301D",
">  c #533216",
",  c #5A3517",
"<  c #53331A",
"1  c #5A371A",
"2  c #5D391A",
"3  c #632915",
"4  c #6C2B17",
"5  c #6E2C19",
"6  c #722D19",
"7  c #752D1A",
"8  c #643E1B",
"9  c #7C301C",
"0  c #432621",
"q  c #4A2E22",
"w  c #492C26",
"e  c #522F21",
"r  c #4D3223",
"t  c #4E3529",
"y  c #523524",
"u  c #533927",
"i  c #543728",
"p  c #553C2C",
"a  c #583E2C",
"s  c #553D32",
"d  c #593F35",
"f  c #593F3A",
"g  c #67411D",
"h  c #6A431D",
"j  c #59412E",
"k  c #574032",
"l  c #5C4435",
"z  c #5C443B",
"x  c #5F4938",
"c  c #6C4421",
"v  c #704621",
"b  c #744A22",
"n  c #7A4D24",
"m  c #7D5025",
"M  c #7A522D",
"N  c #604836",
"B  c #60463A",
"V  c #634B3B",
"C  c #67513E",
"Z  c #5F4743",
"A  c #634D42",
"S  c #614844",
"D  c #6A5545",
"F  c #6E5946",
"G  c #69554B",
"H  c #725D4C",
"J  c #6E5A53",
"K  c #725E54",
"L  c #715F59",
"P  c #76624F",
"I  c #756252",
"U  c #796554",
"Y  c #7C6857",
"T  c #74615A",
"R  c #7E6959",
"E  c #786560",
"W  c #7D6D66",
"Q  c #84321E",
"!  c #89331F",
"~  c #863320",
"^  c #8D3521",
"/  c #933622",
"(  c #983724",
")  c #9A3824",
"_  c #A33A27",
"`  c #A63B28",
"'  c #AC3D2A",
"]  c #B23E2B",
"[  c #815427",
"{  c #865729",
"}  c #8B5B2B",
"|  c #915F2D",
" . c #B7402D",
".. c #BB402E",
"X. c #93612F",
"o. c #966330",
"O. c #996631",
"+. c #9F6A34",
"@. c #A36D36",
"#. c #A76F38",
"$. c #A77037",
"%. c #A97237",
"&. c #AD7439",
"*. c #B0773B",
"=. c #B47A3D",
"-. c #B87D3F",
";. c #C0422F",
":. c #C34331",
">. c #CC4533",
",. c #D34735",
"<. c #826F5D",
"1. c #84725E",
"2. c #BA7F40",
"3. c #867461",
"4. c #897765",
"5. c #8A7966",
"6. c #83726D",
"7. c #8E7B6A",
"8. c #907F6D",
"9. c #897A75",
"0. c #8D7E79",
"q. c #BD8141",
"w. c #93826E",
"e. c #958372",
"r. c #988675",
"t. c #9A8976",
"y. c #91837E",
"u. c #9C8C7A",
"i. c #9E907C",
"p. c #A18C7E",
"a. c #A1927E",
"s. c #C38543",
"d. c #C78845",
"f. c #CA8A46",
"g. c #CF8E48",
"h. c #D08F49",
"j. c #D4924A",
"k. c #DA964D",
"l. c #DC984E",
"z. c #CB9256",
"x. c #DAAC7D",
"c. c #948682",
"v. c #968984",
"b. c #998B87",
"n. c #9B8E8A",
"m. c #9E918E",
"M. c #A49582",
"N. c #A99B86",
"B. c #AC9D8A",
"V. c #A59A95",
"C. c #AFA08D",
"Z. c #B1A28E",
"A. c #B4A692",
"S. c #B7A995",
"D. c #B8AB97",
"F. c #B3A89D",
"G. c #BBAE99",
"H. c #BDB19C",
"J. c #B1A8A6",
"K. c #B6ADAB",
"L. c #B9B0AF",
"P. c #BEB6B4",
"I. c #C0B49F",
"U. c #C2B6A1",
"Y. c #C5BAA4",
"T. c #C8BCA7",
"R. c #CABEA8",
"E. c #C0B9B7",
"W. c #C4BDBC",
"Q. c #CEC4AD",
"!. c #D0C5AF",
"~. c #C7C0BE",
"^. c #D0C6B0",
"/. c #D5CBB4",
"(. c #D8CEB7",
"). c #DDD3BC",
"_. c #E4C8A9",
"`. c #E0D7BF",
"'. c #E0D8BF",
"]. c #CBC5C4",
"[. c #CEC9C7",
"{. c #D2CDCB",
"}. c #D8D2CD",
"|. c #D6D2D1",
" X c #D9D5D5",
".X c #DBD8D7",
"XX c #DDDAD9",
"oX c #E4DBC4",
"OX c #E5DCC4",
"+X c #E8DFC7",
"@X c #E3DEDB",
"#X c #E8E0C7",
"$X c #E9E1C9",
"%X c #528054",
"&X c #528054",
"*X c #528054",
"=X c #528054",
"-X c #528054",
";X c #528054",
":X c #528054",
">X c #528054",
/* pixels */
">X>X>X>X>X:X:X;X;X;X;X;X;X;X;X;X;X;X;X;X;X;X;X;X:X;X:X;X;X;X;X;X;X;X;X;X;X;X;X;X;X;X;X;X;X;X;X:X;X;X:X;X;X;X;X;X;X:X>X>X>X>X>X>X",
">X>X>X>X;X;X:X;X;X:X;X:X;X;X;X;X;X:X:X;X;X:X;X;X;X;X;X;X:X;X;X:X:X;X:X;X;X:X:X;X;X;X;X;X;X;X;X;X;X;X;X;X;X:X:X;X:X;X>X>X>X>X>X>X",
">X>X>X>X;X;X:X:X;X:X;X;X;X;X;X;X;X;X;X;X;X;X;X:X:X:X;X:X;X;X;X;X;X;X:X;X;X;X;X;X;X;X;X;X;X;X;X;X;X:X;X:X;X;X;X;X:X;X>X>X>X>X>X>X",
">X>X>X>X;X:X:X:X;X;X;X;X;X;X;X;X;X;X;X;X;X:X;X;X:X:X;X;X;X:X;X;X;X;X;X;X;X;X;X;X;X;X;X;X;X;X;X;X;X;X;X;X;X:X;X;X:X;X>X>X>X>X>X>X",
">X>X>X>X:X:X:X:X;X;X;X;X;X;X;X;X;X;X;X;X;X;X;X;X;X;X;X;X:X;X;X:X;X;X;X;X;X;X;X;X;X;X;X;X:X:X:X:X;X;X;X;X;X;X;X:X:X:X>X>X>X>X>X>X",
">X>X>X>X:X:X:X:X;X;X;X;X;X;X;X;X;X;X;X;X;X;X;X;X;X:X;X;X;X;X;X;X;X;X;X;X;X;X:X;X;X;X;X;X-X-X-X;X;X:X;X;X;X;X;X;X:X:X>X>X>X>X>X>X",
">X>X>X>X:X:X:X:X;X;X;X;X;X;X;X;X;X;X;X;X;X;X;X;X;X;X;X:X;X;X;X;X;X;X;X;X;X;X;X=X&X;X:X|.m.b.V.J.W..X*X;X;X;X;X;X:X:X>X>X>X>X>X>X",
">X>X>X>X:X:X:X:X;X;X;X;X;X;X;X;X;X;X;X;X;X;X;X;X;X:X;X;X:X;X;X:X;X;X;X;X;X*XW.c.u.}.=XF.k w e w t G c.W.&X;X;X:X:X:X>X>X>X>X>X>X",
">X>X>X>X:X;X;X;X;X;X;X;X;X;X;X;X;X;X;X;X;X;X;X;X;X;X;X;X;X;X:X:X;X;X;X=X].y.z r K ^.$X/.N.a.u.7.U z r z n.XX;X;X:X:X>X>X>X>X>X>X",
">X>X>X>X:X;X;X;X;X;X:X;X;X:X;X:X;X;X;X;X;X;X;X;X;X;X;X;X;X;X:X:X;X-X Xm.A r D t.R.oX$X$XOXoXoX`.(.Y.u.V t 6. X;X:X:X>X>X>X>X>X>X",
">X>X>X>X:X:X:X;X;X;X:X;X;X;X;X;X;X;X:X:X;X;X;X;X;X;X;X;X:X;X:X-XXXK.L w N u.Q.oX#X#X#X+XoXoXOX+X$X$X+XR.Y t n.*X:X>X>X>X>X>X>X>X",
">X>X>X>X:X;X;X;X;X;X;X;X;X;X;X;X;X;X;X;X;X;X;X;X;X;X;X;X*X%X{.V.L t i 3.U.OX#X#X#X}.Y.M.r.w.M.U.).$X#X$X!.H z ~.:X;X>X>X>X>X>X>X",
">X>X>X>X:X;X;X;X;X;X;X;X;X&X X].W.P.P.E.].[.{.|.{.[.W.J.n.L f q i R D.}.+X+X$XOXT.4.j @ o X $ p 3.T.+X+X$XA.s b.;X:X>X>X>X>X>X>X",
">X>X>X>X;X:X;X;X;X;X-X XF.6.A t 0 0 0 0 0 r p s p r w . . u A 7.G.).+X+X#X+X).M.N o * ! ) ( ^ 4 @ H Q.$X$X/.H L %X:X>X>X>X>X>X>X",
">X>X>X>X;X:X;X;X;X%XV.G t e B K 4.7.5.5.1.U H F H U 1.0.a.H./.'.+X+X+X+X).H.Y : = ^ ..,.,.,.,.] ^ # 8.oX$XoX5.S |.:X>X>X>X>X>X>X",
">X>X>X>X:X;X;X;X@X0.t d 5.D.!.(.).).oX).).).(.(.(.(.).oX#X#X#X#X+XoX^.A.1.a + 6 ] >.,.,.,.,.,.,.:.6 N ^.$XoXr.z [.:X>X>X>X>X>X>X",
">X>X>X>X:X:X:X%Xy.t K G.`.OX$X$X#X#X#X#X$X#X#X#X$X#X$X$X$X#X(.I.B.w.F u + 3 ) :.,.,.,.,.,.,.,.,.>./ y U.$X#Xt.f [.>X>X>X>X>X>X>X",
">X>X>X>X:X:X;XJ.d Y Q.+X+XOX).!.H.D.H.R.(.oX+X#X$X#X$X#X}.A.R j : # & 4 / ..,.,.,.,.,.,.,.,.,.,.,.) e G.$XOXe.f ].:X>X>X>X>X>X>X",
">X>X>X>X:X;XXXL N Y.#X$X`.D.4.V k p p l P a.Y.}.#X$X#X#XS.j O 3 Q /  .:.,.,.,.,.,.,.,.,.,.,.,.,.,./ e U.$XoXR f ].:X>X>X>X>X>X>X",
">X>X>X>X>X:XK.d t.OX$X).t.a + * 5 6 5 3 O # V a.).$X$X).1.+ ) :.>.,.,.,.,.,.,.,.,.,.,.,.,.,.,.,.>.9 d !.$X^.C s ].>X>X>X>X>X>X>X",
">X>X>X>X:X*X0.B R.$XOXM.y 3 ) ] >.>.>.;. .! = : u.oX#XoX1.+ _ >.,.,.,.,.,.,.,.,.,.,.,.,.,.,.,.,.] 3 I `.$XG.y s ].>X>X>X>X>X>X>X",
">X>X>X>X>X@XK P ).$X^.C * ] ,.,.,.,.,.,.,.>.] 3 u D.OX#XG.j O / :.,.,.,.,.,.,.,.,.,.,.,.,.,.,.,._ ; a.$XOXe.. a ].:X>X>X>X>X>X>X",
">X>X>X>X:X|.S 5.oX$XA.y / ,.,.,.,.,.,.,.,.,.,.' & P (.$XOXC.x + 5 _ :.,.,.,.,.,.,.,.,.,.,.,.,.;.4 N R.$XQ.C   d ].>X>X>X>X>X>X>X",
">X>X>X>X>X].S r.+X$Xa.= ' ,.,.,.,.,.,.,.,.,.,.>.! < a.OX#XOXI.1.u + 7 _ :.,.,.,.,.,.,.,.,.,.>.! ; r.oX+XM.y , k ].:X>X>X>X>X>X>X",
">X>X>X>X:X].Z t.+X+Xa.; ] ,.,.,.,.,.,.,.,.,.,.,...- V I.OX#X#X(.C.U : & 5 /  .:.>.,.,.,.>.:./ ; P Q.$X^.F 8 n B ].>X>X>X>X>X>X>X",
">X>X>X>X:X].Z r.OX$XN.y _ ,.,.,.,.,.,.,.,.,.,.,.,.( = C B./.OX#XOX/.B.U a # = 4 9 ! / ! Q 4 @ D I.#XOXi.; | | f ].:X>X>X>X>X>X>X",
">X>X>X>X>X].z 5.+X$XI.i ^ ,.,.,.,.,.,.,.,.,.,.,.,.>./ = r P a.Y.(.OXOX(.G.w.F a r % : % : j U H.OX#XU.l c s.X.l [.:X>X>X>X>X>X>X",
">X>X>X>X:X].z U ).$X/.D 4 :.,.,.,.,.,.,.,.,.,.,.,.,.>.` 6 + % l Y M.R.).OX}./.H.B.i.t.u.N.H.(.#X$X(.R # @.j.} z {.>X>X>X>X>X>X>X",
">X>X>X>X:X].d l !.$X+Xr.; ) ,.,.,.,.,.,.,.,.,.,.,.,.,.,.:.' ~ 3 + # j Y C.Q.OX#X+XOXOXOXOX#X$X$XoXr.% m h.j.[ A  X>X>X>X>X>X>X>X",
">X>X>X>X>X].d $ B.+X$XR.N 3 ..,.,.,.,.,.,.,.,.,.,.,.,.,.,.,.,.:.' Q 3 X @ V u./.+X$X$X$X$X$X$XOXB.p 8 s.k.f.c T &X:X>X>X>X>X>X>X",
">X>X>X>X:X].k   <.).#XOXa.: 7 ..,.,.,.,.,.,.,.,.,.,.,.,.,.,.,.,.,.>.;._ 7 O # Y ^.$X$X$X$X$XOXD.x , &.k.l.2.1 c.-X;X>X>X>X>X>X>X",
">X>X>X>X>X].z X i A.#X$X).5.; 6  .,.,.,.,.,.,.,.,.,.,.,.,.,.,.,.,.,.,.>.>. .4 % M.OX$X$X$XOXH.V > +.j.k.k.O.a L.;X;X>X>X>X>X>X>X",
">X>X>X>X:X].B 8 < U (.$X+X/.4.% 3 ) :.,.,.,.,.,.,.,.,.,.,.,.,.,.,.,.,.,.:.' 4 q M.#X$X$X#XD.C > X.h.k.k.f.b J .X:X:X>X>X>X>X>X>X",
">X>X>X>X:X].B } { r u.oX+X$X/.e.a + 5 ( ..:.,.,.,.,.,.,.,.,.,.>.>.:.' / 5 = % <.^.#X#X).C.x > X.f.k.k.l.%.1 v.*X:X:X>X>X>X>X>X>X",
">X>X>X>X:X[.B X.s.8 a C.oX$X$X).S.U u + - 9 / _  . ..... . ._ ( 9 3 = # i F a./.#X#X(.u.a > o.g.k.k.k.h.m x ~.;X:X:X>X>X>X>X>X>X",
">X>X>X>X:X[.B | j.&., l A.oX#X+XOX(.Z.<.x % o > = - - - - O + # $ j H w.S./.oX+XOXI.1.: 2 $.j.k.k.k.k.&.< 9.%X:X:X:X>X>X>X>X>X>X",
">X>X>X>X:X{.A } k.j.@.> k N.).+X#X$XOX`.Q.Z.t.1.H C C C C U 1.u.C.U.(.oX+X+XOX/.n.V o h =.k.k.k.k.k.d.g x ~.:X:X:X:X>X>X>X>X>X>X",
">X>X>X>X>X XG n j.k.j.@., < 4.R.OX$X$X$X$X$XOX'.).).).).).}.#X#X$X$X#X#XOX).C.H $ > | f.k.k.k.k.k.j.| $ b.-X:X;X:X:X>X>X>X>X>X>X",
">X>X>X>X:X&XW g d.l.k.j.&.8 + N r.Y.).OX$X$X$X$X$X$X#X#X#X#X$X#X$XOX).Y.a.D : # n *.j.k.k.k.k.k.k.&.> J .X;X;X;X:X:X>X>X>X>X>X>X",
">X>X>X>X:X;Xm.1 %.k.k.k.k.s.} , @ a R a.H.Q.(.).}.'.'.).).(.Q.U.A.r.U k @ > n $.f.j.k.k.k.k.k.l.q.g k P.;X;X;X;X:X:X>X>X>X>X>X>X",
">X>X>X>X:X:XW.d { j.k.k.k.k.j.-.} 8 # % p z H U 1.1.3.1.U F x a r % # g } *.f.k.k.k.k.k.k.k.k.q.n i V.=X;X:X;X;X:X:X>X>X>X>X>X>X",
">X>X>X>X:X:X@XW c f.k.k.k.k.k.k.j.s.#.{ b g , < ; > > > < 2 g v m | &.s.h.k.k.k.k.k.k.k.k.k.s.m y 0.@X:X;X;X;X:X:X:X>X>X>X>X>X>X",
">X>X>X>X:X;X;XP.8.k.k.l.k.l.k.k.l.k.j.j.g.s.-.&.%.%.%.&.=.-.q.f.j.j.k.k.k.k.k.k.k.k.k.k.k.d.m % 6.XX:X;X;X;X;X;X:X>X>X>X>X>X>X>X",
">X>X>X>X:X;X;X-X@Xx.g.k.k.k.k.k.l.k.l.l.k.k.k.k.k.k.k.k.k.k.k.k.k.k.k.j.f.&.*.j.k.k.k.k.q.m : W |.:X;X;X;X:X;X;X:X;X>X>X>X>X>X>X",
">X>X>X>X:X:X:X:X;XB.M -.k.k.k.k.k.k.k.k.k.k.k.k.k.k.k.k.k.k.k.k.k.k.f.+.b > b f.k.k.j.=.h : W |.;X;X;X;X:X:X;X:X:X:X>X>X>X>X>X>X",
">X>X>X>X:X:X:X:X;XF.q n h.k.k.k.k.k.k.k.h.f.j.k.k.k.k.k.k.j.j.f.g.k.O.o o g $.j.k.g.$., $ y..X;X;X;X;X;X:X:X;X;X:X:X>X>X>X>X>X>X",
">X>X>X>X:X:X:X:X:X%Xy.C z.k.k.k.k.k.k.j.X.8 n X.+.@.$.#.O.} h 2 o.j.-.X.&.f.k.j.q.m % k m.%X:X:X;X:X;X:X:X:X:X:X:X:X>X>X>X>X>X>X",
">X>X>X>X:X:X:X:X;X;X&X X_.z.-.h.k.k.k.j.+.2 > X X . X . X o > 8 $.j.j.j.j.j.d.X.2 $ T P.*X:X:X:X;X;X;X;X:X:X:X:X:X:X>X>X>X>X>X>X",
">X>X>X>X;X;X;X;X;X;X;X;X=Xp.8 [ =.h.k.k.h.q.=.+.| { } } X.+.*.s.j.k.k.g.-.X.8 ; B b. X;X;X;X;X;X;X;X;X;X;X;X;X;X;X;X>X>X>X>X>X>X",
">X>X>X>X;X;X;X;X;X;X;X;X;XW.L e < n +.2.f.h.h.h.h.h.h.h.j.h.j.f.s.2.o.n 2 # l 0.W.&X;X;X;X;X;X;X;X:X:X;X;X;X;X;X;X;X>X>X>X>X>X>X",
">X>X>X>X;X;X:X:X;X;X;X;X;X-X|.V.K t ; , v } X.@.%.%.%.#.+.o.{ m 8 < # u G c.W.%X;X;X;X;X;X;X;X;X;X;X;X;X:X;X;X:X;X:X>X>X>X>X>X>X",
">X>X>X>X;X:X:X:X;X;X;X;X;X;X;X-XXXL.0.K s q % % : < < # % q r t A E y.K.|.*X;X;X;X;X;X;X;X;X;X;X;X;X:X;X;X;X;X;X;X:X>X>X>X>X>X>X",
">X>X>X>X:X:X:X:X;X;X:X;X;X;X;X;X;X;X*X XW.J.V.n.y.0.y.y.m.V.K.P.{.@X*X;X;X;X;X;X;X;X;X;X;X;X;X;X:X;X:X;X;X;X;X;X:X:X>X>X>X>X>X>X",
">X>X>X>X:X:X:X:X;X;X;X;X;X;X;X;X:X;X;X;X:X;X;X=X*X*X*X*X*X;X;X;X;X;X:X:X;X;X;X;X;X;X;X;X;X;X;X;X;X;X;X;X:X;X;X:X:X:X>X>X>X>X>X>X",
">X>X>X>X:X:X:X:X;X;X;X;X:X;X;X;X;X;X;X;X:X;X;X;X:X;X;X:X:X;X:X;X;X;X:X;X;X;X;X;X;X;X;X;X;X;X;X;X;X;X;X;X;X;X:X;X:X:X>X>X>X>X>X>X",
">X>X>X>X:X:X:X:X:X;X;X;X;X;X;X;X;X:X;X;X:X;X;X;X;X;X;X;X:X:X;X;X;X;X:X;X;X;X;X;X;X;X;X;X;X;X;X;X:X;X;X:X;X;X;X;X:X:X>X>X>X>X>X>X",
">X>X>X>X;X:X:X:X;X;X:X:X:X:X:X:X;X;X;X;X;X;X;X;X;X;X;X;X;X:X:X:X:X;X:X;X;X:X;X;X;X;X:X;X;X:X;X;X;X;X;X;X;X:X:X:X:X:X>X>X>X>X>X>X",
">X>X>X>X>X:X:X:X;X;X;X;X:X:X:X:X:X;X;X:X:X;X;X;X;X:X;X;X;X;X:X:X;X;X;X;X;X;X:X;X;X:X;X;X;X;X;X;X;X;X:X;X;X:X:X:X:X>X>X>X>X>X>X>X",
">X>X>X>X;X:X:X:X;X:X;X;X;X;X:X;X:X:X:X:X;X;X:X;X;X;X;X:X;X;X:X:X:X;X;X;X;X;X;X;X:X:X:X:X;X;X;X:X:X;X;X:X;X;X:X:X:X:X>X>X>X>X>X>X",
">X>X>X>X>X:X:X:X;X;X;X;X;X:X;X;X:X:X:X:X;X;X;X;X;X;X;X;X;X:X:X:X;X;X:X;X;X:X;X;X:X:X:X:X;X:X;X;X;X;X;X;X;X:X:X:X:X>X>X>X>X>X>X>X",
">X>X>X>X>X:X:X:X;X;X:X:X;X;X;X;X:X:X:X:X:X:X:X:X;X;X;X;X:X:X:X:X:X:X:X:X;X;X;X:X:X:X:X:X:X:X:X:X;X;X;X;X:X:X:X:X:X>X>X>X>X>X>X>X",
">X>X>X>X>X>X:X:X;X;X;X:X:X;X;X:X:X:X:X:X:X:X:X:X;X;X;X;X:X:X:X:X:X:X:X:X:X;X;X;X:X:X:X:X:X:X:X:X:X;X;X:X:X:X:X:X>X>X>X>X>X>X>X>X",
">X>X>X>X>X>X>X>X>X;X:X:X>X:X:X:X:X:X>X:X>X:X:X:X>X:X;X:X:X:X>X:X>X:X:X:X>X:X;X:X:X:X>X:X>X:X:X:X>X:X;X;X:X>X>X>X>X>X>X>X>X>X>X>X",
">X>X>X>X>X>X>X>X>X>X>X>X>X>X>X>X>X>X>X>X>X>X>X>X>X>X>X>X>X>X>X>X>X>X>X>X>X>X>X>X>X>X>X>X>X>X>X>X>X>X>X>X>X>X>X>X>X>X>X>X>X>X>X>X"
};
