/* XPM */
static char *result[] = {
/* columns rows colors chars-per-pixel */
"64 64 227 2 ",
"   c #528054",
".  c #538054",
"X  c #528055",
"o  c #528053",
"O  c #528154",
"+  c #517D53",
"@  c #4D784F",
"#  c #49724B",
"$  c #466D48",
"%  c #476F49",
"&  c #4B754D",
"*  c #4F7B51",
"=  c #517F53",
"-  c #527F54",
";  c #4E7950",
":  c #476F4A",
">  c #476E49",
",  c #4B744C",
"<  c #49724A",
"1  c #4B744D",
"2  c #517E53",
"3  c #517E52",
"4  c #4E784F",
"5  c #517F54",
"6  c #4C774E",
"7  c #466E48",
"8  c #507D52",
"9  c #538155",
"0  c #4D784E",
"q  c #4E7A50",
"w  c #527F53",
"e  c #538055",
"r  c #518054",
"t  c #538154",
"y  c #578453",
"u  c #598653",
"i  c #568353",
"p  c #538053",
"a  c #507F54",
"s  c #548253",
"d  c #618C52",
"f  c #689352",
"g  c #5F8B53",
"h  c #538153",
"j  c #507E54",
"k  c #558253",
"l  c #669152",
"z  c #729C51",
"x  c #6A9552",
"c  c #5B8853",
"v  c #548153",
"b  c #517E54",
"n  c #558353",
"m  c #669252",
"M  c #749E51",
"N  c #739E50",
"B  c #699451",
"V  c #5C8852",
"C  c #588553",
"Z  c #76A051",
"A  c #7BA351",
"S  c #739C51",
"D  c #618D53",
"F  c #548154",
"G  c #578553",
"H  c #548254",
"J  c #649052",
"K  c #659153",
"L  c #5A8653",
"P  c #769F51",
"I  c #7CA450",
"U  c #628E53",
"Y  c #4F7E54",
"T  c #588653",
"R  c #638F52",
"E  c #6C9752",
"W  c #6E9852",
"Q  c #5E8A53",
"!  c #628D52",
"~  c #719B51",
"^  c #78A251",
"/  c #5F8951",
"(  c #507C51",
")  c #548052",
"_  c #638E53",
"`  c #719B52",
"'  c #5A8753",
"]  c #6E9951",
"[  c #709A51",
"{  c #5E8A52",
"}  c #648F53",
"|  c #709950",
" . c #5A814B",
".. c #4E764A",
"X. c #5D874F",
"o. c #709A52",
"O. c #78A152",
"+. c #5B8753",
"@. c #6F9952",
"#. c #5E8B53",
"$. c #568354",
"%. c #588453",
"&. c #648F51",
"*. c #67904C",
"=. c #5A7F47",
"-. c #577D47",
";. c #6A924D",
":. c #769F50",
">. c #729B4F",
",. c #66904F",
"<. c #6E9952",
"1. c #5B8854",
"2. c #618D52",
"3. c #537C4D",
"4. c #587E48",
"5. c #5F8648",
"6. c #6A924C",
"7. c #759E4F",
"8. c #71994E",
"9. c #5F8649",
"0. c #547C4B",
"q. c #527E51",
"w. c #608C53",
"e. c #6F9951",
"r. c #588654",
"t. c #4F7D52",
"y. c #4C7247",
"u. c #5E854A",
"i. c #6E974D",
"p. c #71994D",
"a. c #648B4B",
"s. c #4F7547",
"d. c #487049",
"f. c #4E7A51",
"g. c #6E9851",
"h. c #608D52",
"j. c #709B51",
"k. c #6C9652",
"l. c #4C784F",
"z. c #4C754B",
"x. c #537A48",
"c. c #587E47",
"v. c #587E46",
"b. c #537947",
"n. c #4C744A",
"m. c #4B764E",
"M. c #4F7C52",
"N. c #699452",
"B. c #5D8953",
"V. c #4F7B50",
"C. c #49714A",
"Z. c #446944",
"A. c #436843",
"S. c #486F48",
"D. c #4E794F",
"F. c #5D8A53",
"G. c #719A51",
"H. c #6B9653",
"J. c #598654",
"K. c #4B774F",
"L. c #47704B",
"P. c #47704A",
"I. c #6D9752",
"U. c #689353",
"Y. c #588454",
"T. c #558254",
"R. c #568453",
"E. c #5F8B52",
"W. c #648F52",
"Q. c #6F9A52",
"!. c #6A9452",
"~. c #5D8853",
"^. c #679351",
"/. c #568454",
"(. c #679252",
"). c #689252",
"_. c #608C52",
"`. c #568253",
"'. c #6D9751",
"]. c #6D9852",
"[. c #659053",
"{. c #6A9551",
"}. c #6B9552",
"|. c #6F9A51",
" X c #5C8853",
".X c #679352",
"XX c #608D53",
"oX c #618C53",
"OX c #638F53",
"+X c #4D794F",
"@X c #4B754C",
"#X c #4F7C51",
"$X c #456C47",
"%X c #4A734C",
"&X c #4A744C",
"*X c #48714A",
"=X c #486F49",
"-X c #4E7B51",
";X c #4C764D",
":X c #477049",
">X c #48704A",
",X c #4D7850",
"<X c #456B47",
"1X c #49704B",
"2X c #4D774F",
"3X c #5F8C52",
"4X c #507E52",
"5X c #659152",
"6X c #6B9752",
"7X c #719C51",
"8X c #628E52",
"9X c #6B9651",
"0X c #638E52",
"qX c #689452",
"wX c #659052",
"eX c #5B8754",
"rX c #649053",
"tX c #578454",
"yX c #6B9652",
"uX c #679253",
"iX c #658F52",
"pX c #669153",
"aX c #588554",
"sX c #6A9451",
"dX c #6B9551",
"fX c #518053",
"gX c white",
/* pixels */
"        . X             X X         .       o     o                 . X X O + @ # $ % & * =     .       o     o     -         . ",
"            - - o . .   - .                           .             O O     ; : > , < $ 1 2 O               .     .             ",
"  .   -     -               .     X   o           .           .             ; > > , < $ , 3 O     o         o .   X     .   -   ",
"      o             o             .       .                                 2 4 < $ % & * =           .         o           o   ",
"  o           5   -   .       .     .   X                             -     X 5 6 7 # 8 X       .   X             -     o       ",
"    .       o   X .     -   -       o   .       o                           9   8 0 q 5 X   o   o   .       o             .     ",
"    o                   .     .     .     w                   o -       o     O           . .   .   - w         -         o     ",
"            . .   .       X       -                   -       5 5 5           .   O e         -                 .               ",
"        o       X .     r     -   .       o .       o     r t y u i o 5       .     r     -           o .   o   p -           o ",
"  .     .   . .             . -       .         -       r a s d f g h j -               . -       .       -       o     .     . ",
"                    X 5 =   X                           5 j k l z x c v     5 5 5       X                       -               ",
"    . o o   .         b 5 r   - - - -   X               5 j n m M N B V . 5   5 a         - - - -   X .     o   -         . o o ",
"        .         - v y C s   - p     .                 5 j n l Z A S D t j F C G H           p   .     X         o           . ",
"        . X     5 5 G J K L 5 5         o               5 j k l P I M U . Y T J R C 5 5             o     - o     r           . ",
"  p   o     -   5 5 c E W Q = j                         r a s ! ~ ^ z / ( ) _ ` E ' 5       o               .           p   o o ",
"                5 5 c ] [ { = a -   5                     5 t u } ` |  ...X.o.O.W +.5 =     .   =   p     X - X                 ",
"-   .           5 5 c W @.#.H $.i t                         -   %.&.*.=.-.;.:.>.,.%.5 r                       .       -   .     ",
"        X       = 5 c W <.Q 1.J 2.$.5                         5 = 3.4.5.6.7.8.9.0.q.X                           .             X ",
".           -   5 5 c W ] Q w.e.x r.j                         O t.# y.u.i.p.a.s.d.f.X                     .           .         ",
"-           X   5 5 c g.] Q h.j.k.u a         .               O 2 l.z.x.c.v.b.n.m.M.                .   o .           -         ",
"X   .         - 5 5 L N.x B.h.j.k.u a         o               . . 5 V.C.Z.A.S.D.=                         o           X   .     ",
"  -   o         5 5 i Q F.y d G.H.J.j           -                 t 2 K.L.P.& 8 9           X               -     o     -   o   ",
"      o               .   t #.I.U.Y.b     .                           = 2 2 =                                 X             o   ",
"                      j j w u w.Q T.5 -                               o t 9 O       o                                         . ",
"- 5   -     o         - -   t F F   -   -                       -                               -                     - 5   -   ",
"a 5 -             o           5 5   .                     .                   o                                       r a -     ",
"y n .                                                                                   .                             k R.F - o ",
"l ! n b                         X           -                                                 X                   5 o E.W.L 5 5 ",
"Q.!.~.T..                                                                                                     o . k u ^.I.D /.. ",
"l (.)._.`.5           -                     o   -                                 -       .           o     - 5 H F.m (.(.f R L ",
"B.R '.(.%.5 r                         .                                                   .       .         - b H _ ].[._.{.}.{ ",
"l (.(.E.i 5                                                                                                   5 F B.K (.(.f _ L ",
"|.N. XF                             .                             . . X                                           s C .XE XX$.. ",
"K oXn j                                                             .               X                             5 . E.OXu 5 5 ",
"$.k . 5     -               .                     .   .               O       .       .                     .     X   k i F 5   ",
"j 5 - -                           X   o                       .                                                       r 5 - -   ",
"5 r                   .                               -                           .                                   5 r       ",
"  o                     -           t t X                   o                     - -                                           ",
"            o     .     -     -     = 2 w                               o   .     -     -                                       ",
"    o                           9   +X@X;   t         -       o                     .     .                                     ",
"            . .   .               #X# $X%X8                                   .     X         -                 .               ",
"        o                     5 f.&X*X% =X&X-X-                     o                     -                     o -           o ",
"- .     .   . .             e b & $Xd.;X% $Xm.=                     .                         -           -       o   - .     . ",
"                    X       X 5 @ :X% # :X>X,X=                                             5 b -   X           -               ",
"    .   o   .     .             2 q >X<X# f.5                     o                     - - p t     X .     o             .   o ",
"        .       . -             O w 6 1X2X- 9                     . .               5 j j H  X3Xu       X         o           . ",
"        .           o   -           4X#X3                             X                   R.5X6X3X  =     - o     r           . ",
"  p   o     -   -   .       o     O O O O                         o             - . u { u u N.7X8Xp b       .           p   o o ",
"                          o     .       .                                       5 v 2.9X0X+.qX7X0X. 2     X - X                 ",
"  - .                 .                                     -                   5 H J 7X(. Xf 7XR t j   -     .       - - .     ",
"        X     .                                                   X             b H wX~ (.c (.[ U . a           .             X ",
".           -             X       - -         .                               - b t J 7Xf L w.l B.. 5     .           .         ",
"            X     -                           .                         X     - 2 v R ~ (.R.n C i .     o .           -         ",
"X   .         -   - .               X           5 5                           - b h #..Xh.s j =           o           X   .     ",
"  -   o                     o           p     5 . .             o o             -   i u y o 5 5     p     - -     o     -   o   ",
"                              .             5 s  X X$.5               o           - 5 5 5             .   o   X                 ",
"    . - .   p           o o         o - -   5 L f N.1.- 5         -                 = 5 5 -     o -                       . - . ",
".     -     o     o               . - - 5 F eX_ !.x rX1.T.-                   o             p   -   -     - p         .     -   ",
"    -           . w   .   o .         5 j tXK yXW.} k.uXT 5                   o   .   o .       .   .             X       -     ",
"-       o                   - .   -   5 b tXW.x iXW.x pXaX5 -                           - .   X         o   o     .           o ",
"  -             . X   .           .       t aXD sXdXU J.F 5 -                 X           o   X         -   .           -       ",
"  X                   -   .   .           5 5 J..XqXeX- 5                             .   .                 -   .       X       ",
"-                   . -       -       . - o fXt tXC H 5                                     .     . - o     -     o           - ",
"          o                   .       .                                 o       2 * #X5 . .     X .   .       .                 "
};
