/* XPM */
static char *result[] = {
/* columns rows colors chars-per-pixel */
"64 64 145 2 ",
"   c #040303",
".  c #0C0505",
"X  c #0C0A06",
"o  c #050708",
"O  c #060A0C",
"+  c #0B0B0B",
"@  c #120505",
"#  c #1C0707",
"$  c #120D06",
"%  c #170708",
"&  c #180708",
"*  c #100F0E",
"=  c #1C0809",
"-  c #181107",
";  c #1B140A",
":  c #090F11",
">  c #0D1213",
",  c #0C1518",
"<  c #0F1A1D",
"1  c #141414",
"2  c #181717",
"3  c #1C1C1C",
"4  c #230A0B",
"5  c #2D0D0E",
"6  c #300E0F",
"7  c #251C0E",
"8  c #2A1E0D",
"9  c #330F10",
"0  c #351112",
"q  c #3D1314",
"w  c #2C200E",
"e  c #322410",
"r  c #342813",
"t  c #111C20",
"y  c #152227",
"u  c #1F2121",
"i  c #172529",
"p  c #1A292E",
"a  c #1F3036",
"s  c #242424",
"d  c #272828",
"f  c #2C2C2C",
"g  c #2F3030",
"h  c #21343A",
"j  c #333333",
"k  c #3B3B3B",
"l  c #441416",
"z  c #481617",
"x  c #4A1618",
"c  c #4C1819",
"v  c #541A1C",
"b  c #5C1C1E",
"n  c #402F14",
"m  c #473619",
"M  c #523F1E",
"N  c #6A2122",
"B  c #742425",
"V  c #792627",
"C  c #7C2729",
"Z  c #53401E",
"A  c #5E4822",
"S  c #694D23",
"D  c #6C5227",
"F  c #7C5E2C",
"G  c #7E602E",
"H  c #253A42",
"J  c #283F46",
"K  c #3F4040",
"L  c #2E4850",
"P  c #324D57",
"I  c #3C5A65",
"U  c #434343",
"Y  c #4B4B4B",
"T  c #545454",
"R  c #5C5C5C",
"E  c #41626E",
"W  c #446672",
"Q  c #646464",
"!  c #676868",
"~  c #6B6C6C",
"^  c #6F7070",
"/  c #727272",
"(  c #7B7B7B",
")  c #8E2C2E",
"_  c #902D2F",
"`  c #962F31",
"'  c #9D3134",
"]  c #A33335",
"[  c #A83537",
"{  c #AC3639",
"}  c #B0373A",
"|  c #B5393B",
" . c #BB3B3E",
".. c #C13C3F",
"X. c #835F2A",
"o. c #84602C",
"O. c #8E672E",
"+. c #916A2F",
"@. c #8A6A33",
"#. c #A47B39",
"$. c #C53E40",
"%. c #C93F42",
"&. c #CD4043",
"*. c #D04144",
"=. c #AE8640",
"-. c #B18841",
";. c #C99747",
":. c #CD9C4B",
">. c #D39D49",
",. c #D6A34E",
"<. c #D8A650",
"1. c #DDAA51",
"2. c #E4AE53",
"3. c #E6B054",
"4. c #E9B255",
"5. c #4F7582",
"6. c #517986",
"7. c #577F8D",
"8. c #58818F",
"9. c #598493",
"0. c #6594A4",
"q. c #6B9BAB",
"w. c #74A7B8",
"e. c #79ADBF",
"r. c #7CAFC1",
"t. c #7FB4C5",
"y. c #848484",
"u. c #8C8C8C",
"i. c #939393",
"p. c #9B9B9B",
"a. c #A4A4A4",
"s. c #ABABAB",
"d. c #B4B4B4",
"f. c #BCBCBC",
"g. c #81B7C7",
"h. c #82B7C8",
"j. c #85BACB",
"k. c #C5C5C5",
"l. c #C9C9C9",
"z. c #D3D3D3",
"x. c #DDDDDD",
"c. c #E3E3E3",
"v. c #ECECEC",
"b. c #528054",
"n. c #528054",
/* pixels */
"b.b.b.b.b.b.b.b.b.b.b.b.b.b.b.b.b.b.b.b.b.b.b.b.b.b.b.b.b.v.f./ / f.v.b.b.b.b.b.b.b.b.b.b.b.b.b.b.b.b.b.b.b.n.b.b.b.b.b.b.b.n.b.",
"b.b.b.b.b.b.b.b.b.b.b.b.b.b.b.b.b.b.b.b.b.b.b.b.b.b.b.n.v.d.Y 1 1 Y d.v.b.b.b.b.b.b.b.b.b.b.b.b.b.b.b.b.b.b.b.b.b.b.b.b.b.b.b.b.",
"b.b.b.b.b.b.b.b.b.b.b.b.b.n.b.b.b.b.b.b.b.b.b.b.b.b.n.c.p.j + @ @ + g p.c.b.b.b.b.b.b.b.n.b.b.b.b.b.b.b.b.b.b.b.b.b.b.b.b.b.b.b.",
"b.b.b.b.b.b.b.b.b.b.b.b.b.b.b.b.b.b.b.b.b.b.b.b.b.b.x.y.s . 9 V V 9 . s y.x.n.b.b.b.b.b.b.b.b.b.b.n.b.b.b.b.b.b.b.b.b.b.b.b.b.b.",
"b.b.b.b.b.b.b.b.b.b.b.n.b.b.b.b.b.b.b.b.b.b.b.b.b.x.( u @ q ` $.$.` l . s ( x.b.b.b.b.b.b.b.b.b.b.b.b.b.b.b.b.b.b.b.b.b.b.b.b.b.",
"b.b.b.b.b.b.b.b.b.b.b.b.b.b.b.b.b.b.b.b.b.b.b.b.x.( u . l ' [ ' } ..' l . u ( x.b.b.b.b.b.b.b.b.b.b.b.b.b.b.b.b.b.b.b.b.b.b.b.b.",
"b.b.b.b.b.b.b.b.b.b.b.b.b.b.b.b.b.b.b.b.b.b.b.c.u.s . x ` ] x 4 b | %.] l . u u.c.b.b.b.b.b.b.b.b.b.b.b.n.b.b.b.b.b.b.b.b.b.b.b.",
"b.b.b.b.b.b.b.b.b.b.b.b.b.b.b.b.b.b.b.b.b.b.v.a.f o l ` { v @ # N ..%.%.` l . f a.v.n.b.b.b.b.b.b.b.b.b.b.b.b.b.b.b.b.b.b.n.b.b.",
"b.b.b.b.b.b.b.n.b.b.b.b.b.b.b.b.b.b.b.b.b.b.f.Y o 6 ` | C = . b } *.%.*.%.) 9 o Y f.b.b.b.b.b.b.b.b.b.b.b.b.b.b.b.b.b.b.b.b.b.b.",
"b.b.b.b.b.b.b.b.b.b.n.b.b.b.b.b.b.b.b.b.n.z.^ * # C  .[ x . l ' %.%.*.%.&. .V = * / z.b.b.b.b.b.b.b.b.n.b.b.b.b.b.b.b.b.b.b.b.b.",
"b.n.b.b.b.b.b.b.b.b.b.b.b.b.b.b.b.b.b.b.b.i.g . v } *. .C v `  .*.*.%.*.&.&.{ v @ g i.b.b.b.b.b.b.b.b.b.b.b.b.b.n.b.b.b.b.b.b.b.",
"b.b.b.b.b.b.b.b.b.b.b.b.b.b.b.b.b.b.b.b.l.T . 6 ' $.%.%.$.$.%.%.%.%.*.%.&.&.$.` 5 o T l.b.b.b.b.b.b.b.b.b.b.b.b.b.b.b.b.b.n.b.b.",
"b.b.b.b.b.b.b.b.b.b.b.b.b.b.b.n.b.b.n.v.u.d . l ` ] ] ] ] ] ] ] ] ] ] ] ] ] ] ` l . f u.v.b.b.b.b.b.b.b.b.b.n.b.b.b.b.b.b.b.b.b.",
"b.b.b.b.b.b.b.b.b.b.b.b.b.b.b.b.b.n.b.z.T +   . % = & & # # = = = = # # = = = = .   + T z.b.b.b.b.b.b.b.b.b.b.b.b.b.b.n.b.b.b.b.",
"b.b.b.b.b.b.b.b.b.n.b.b.b.b.b.b.b.n.c.u.3 o 2 d d s d d s d d d d d s d s s d s d 2 . 3 u.c.b.b.b.b.b.b.b.b.b.b.b.b.b.b.b.b.b.b.",
"b.b.b.b.b.b.b.b.b.b.b.b.b.b.b.b.b.b.k.Y + k y.s.s.s.s.s.s.s.s.s.s.s.s.s.s.s.s.s.s.y.k + Y k.b.b.b.n.b.b.b.b.b.b.b.b.b.b.b.b.b.b.",
"b.b.b.b.b.b.b.b.b.b.b.b.b.b.b.b.n.v.i.2 1 ^ d.l.k.k.k.k.k.f.f.s.d.d.f.k.k.k.k.k.l.d.^ 1 2 i.c.n.b.b.b.b.b.b.b.b.b.b.b.b.b.b.b.b.",
"b.b.b.b.b.b.b.b.b.b.b.b.b.b.b.b.b.k.R + k i.k.k.k.k.k.f.i.Q K g g K ! i.f.k.l.k.k.l.i.k + R k.b.b.b.b.b.b.b.b.b.b.b.b.b.b.b.b.b.",
"b.b.b.b.b.n.b.b.b.b.b.b.b.b.b.b.b.a.f + ! s.l.k.k.k.s.! s o O : : + + s ! a.k.k.k.l.d.Q + f a.b.n.b.b.b.b.b.b.b.b.b.b.b.b.b.b.b.",
"n.b.b.b.b.b.b.b.b.b.b.b.b.b.b.b.c.( 1 3 u.f.l.l.k.d.R 2 : a W 9.9.W h + 2 R d.k.k.l.f.y.u 1 ( c.n.b.b.b.b.b.b.b.b.b.b.b.n.b.b.b.",
"b.b.b.n.b.b.b.b.b.b.b.b.b.b.b.b.l.R o k a.k.k.l.f.y.f : J 0.h.j.j.g.0.J + f y.f.k.k.k.a.j o R l.n.b.b.b.b.b.b.b.b.b.b.b.b.b.b.b.",
"b.b.b.b.b.b.b.b.b.b.b.b.b.b.b.b.d.U + T s.l.k.k.f.R 1 t 5.h.j.j.j.j.g.5.t 1 R f.l.k.l.s.T * U d.n.b.b.b.b.b.b.b.b.b.n.b.b.b.b.b.",
"b.b.b.b.b.b.b.b.b.b.b.b.b.b.b.b.p.f 1 ~ d.l.k.k.f.T * p 8.j.j.j.j.j.h.7.p * T f.k.k.l.f.~ 1 f p.b.b.b.b.b.b.b.b.b.b.b.b.b.b.b.b.",
"b.b.b.b.b.b.b.b.b.b.b.b.b.b.b.b.y.s 3 ( f.l.k.l.f.! 3 < E r.j.j.j.j.r.E < 3 ! f.k.k.l.f.( 2 s u.b.b.b.b.b.b.b.b.b.b.b.b.b.b.b.b.",
"b.b.b.b.b.b.b.b.b.b.b.b.b.b.b.v.=.y s u.k.l.k.l.k.i.k . i 5.q.t.h.w.5.i o k p.k.k.k.l.f.u.u 3 ( b.b.b.b.b.b.b.b.b.b.b.n.b.b.b.b.",
"b.b.b.b.b.b.n.b.b.b.b.b.b.b.b.v.7.t u u.f.l.k.k.k.f.( j . * h P P a : o g ( f.k.k.k.l.f.u.s 2 ( v.b.b.b.b.b.n.b.b.b.b.b.b.b.b.b.",
"b.n.b.b.b.b.b.b.b.b.b.b.b.b.b.v.7.2 s u.f.l.k.k.k.k.f.i.Y 3 @ @ O + 3 Y i.f.k.k.k.k.l.k.u.u 2 ( v.b.b.b.b.b.b.b.b.b.b.b.b.b.b.b.",
"b.b.b.b.b.b.b.b.b.b.b.b.b.b.b.b.y.3 u y.f.l.k.k.k.k.k.k.d.p.( ~ ! ( p.d.k.k.k.k.k.k.l.f.y.u 3 y.v.b.b.b.b.b.b.b.b.b.b.b.b.b.b.b.",
"b.b.b.b.b.b.b.b.b.b.b.b.b.b.b.b.u.q t ( f.l.k.k.k.k.k.k.k.k.k.k.f.k.k.k.k.k.k.k.k.k.l.f.( 2 s u.b.b.b.b.b.b.b.b.b.b.b.b.b.b.b.b.",
"b.b.b.b.b.b.b.b.b.b.b.b.b.b.b.b.p.g 1 ! d.l.k.k.k.k.k.k.f.a.i.7.( u.s.f.k.k.k.k.k.k.l.d.! 1 f p.b.b.b.b.b.b.b.b.b.b.b.b.b.b.n.b.",
"b.b.b.b.b.b.b.b.b.b.b.b.b.b.b.n.d.U % T d.l.k.k.k.k.k.p.R f * + * 1 f R p.f.l.k.k.k.l.s.T + U d.b.b.b.b.b.b.b.b.b.b.b.b.b.b.b.b.",
"b.b.b.b.n.b.b.b.n.b.b.b.b.b.b.n.l.R O j a.k.k.k.k.k.u.k + + i H H i : o k u.k.k.k.l.k.a.j + R l.b.b.b.b.b.b.b.b.n.b.b.b.b.b.b.b.",
"b.b.b.b.b.b.b.b.b.b.b.b.b.b.b.b.c.( 1 s i.f.l.k.k.p.U o t I q.r.e.q.E t o U p.k.l.k.f.u.s 1 ( x.b.b.b.b.b.b.b.b.n.b.b.b.b.b.b.b.",
"b.b.n.b.b.b.b.b.b.b.b.b.b.b.b.b.b.i.s 1 / d.l.k.f.^ 3 , I e.j.j.h.h.e.I , u ^ f.k.l.f./ * s p.b.b.b.b.b.b.b.b.b.b.b.b.b.b.b.b.b.",
"b.b.b.b.b.b.b.b.b.b.b.b.b.b.b.b.b.d.U + T s.l.l.f.T * p 8.j.j.j.j.j.j.7.p * T f.k.l.s.T + U d.n.b.b.b.b.b.b.b.b.b.b.b.b.b.b.n.b.",
"b.b.b.b.b.b.b.b.b.b.b.b.b.b.b.b.n.l.Q + k i.l.k.f.R 1 i 6.h.j.j.j.j.h.6.i * R f.l.k.p.k + Q l.n.b.b.b.b.b.b.b.b.b.b.b.b.b.b.b.b.",
"b.b.b.b.b.b.b.n.b.b.b.b.b.b.b.b.n.c.u.* s y.f.l.f.( d O L q.h.j.j.h.q.L + s ( f.l.k.8.w 1 u.x.n.b.b.b.b.b.b.b.b.b.b.b.b.b.b.b.b.",
"b.b.b.b.b.b.b.b.b.b.b.b.b.b.b.b.n.c.i.2 + ! f.k.k.s.T 1 : J 6.0.0.6.J : * T d.l.k.f./ # 2 i.c.n.b.b.b.b.b.b.b.b.b.b.b.b.b.b.b.b.",
"b.b.b.b.b.b.b.b.b.b.b.b.b.b.b.b.v.d.Y     T a.l.k.k.a.R 2 + : < < : o 2 R a.k.k.l.a.T     Y s.b.n.b.b.b.b.b.b.b.b.b.b.b.b.b.b.b.",
"n.b.b.b.b.b.b.b.b.b.b.b.b.b.b.b.f.T       k i.k.k.k.k.d.y.Y ,     1 Y y.d.k.k.k.k.u.k     o T f.b.b.b.b.b.b.b.b.b.b.b.n.b.b.b.b.",
"b.b.b.b.b.b.b.b.b.b.b.b.b.b.b.l.T 1 @ 4 . s ( k.k.k.k.l.f.i.f     f u.f.l.k.k.k.k.( u   4 @ * T k.b.b.b.b.b.b.b.b.b.b.b.b.b.b.b.",
"b.b.b.b.b.b.n.b.b.b.b.b.b.b.z.R 1 = v C 4 * R d.k.k.k.l.f.^ <     1 ~ f.l.k.k.k.f.R * 4 C b = 2 R z.b.b.b.b.b.b.b.b.b.b.b.b.b.b.",
"b.b.b.b.b.b.b.b.b.b.b.b.b.z./ 1 @ b } { q o Y a.k.k.k.l.p.Z : % % + k a.k.k.l.k.a.U . 0 [ } b @ 1 ^ z.b.b.b.b.b.b.b.n.b.b.b.b.b.",
"b.b.b.b.b.b.b.b.b.b.b.b.x.( 2 X v ] &. .v . g u.k.k.l.f.y.2 + v v % 2 y.f.l.k.k.i.j . v  .&.[ v . 2 y.x.n.b.b.b.b.b.b.b.b.b.b.b.",
"b.b.b.b.b.b.b.b.b.b.n.v.u.s . c ] &.&.$.B # t / f.k.l.a.T X 5 ) _ 6 o T a.l.k.f./ u # B ..&.&.] c . s u.v.b.b.b.b.b.b.b.n.b.b.b.",
"b.b.b.b.b.b.b.b.b.b.n.z.! o = ) $.&.&.$.) 5 1 T d.f.k.i.U o l [ [ l . K i.k.f.d.T > 5 ) &.&.&...) = . ! z.n.b.b.b.n.b.b.b.b.b.b.",
"b.b.b.b.b.b.b.b.b.b.b.v.u.u @ B | *.&.&.{ l . 3 Y T T U u   5 _ _ 5   u U T T Y 3   l [ &.&.&. .B @ 3 u.v.n.b.b.b.b.b.b.b.b.b.b.",
"b.b.b.b.n.b.b.b.b.b.b.n.f.T . l ' &.&.&.` 0     o     . .   # N N %   . X .   o o   0 ` &.&.&.' q + T f.n.b.b.b.b.b.b.b.b.b.b.b.",
"b.b.b.b.b.b.b.b.b.b.b.n.c.u.2 % B $.%.{ x . s T U + - M D 7 . 6 9 X 7 D M ; + U T s . x { %.$.B % 2 u.c.n.b.b.b.b.b.b.b.b.b.b.b.",
"b.b.n.b.b.b.b.b.b.b.b.n.b.k.U O x ] } b @ 3 ( d.T + m =.:.A $     X A :.=.m + T d.( t @ b } ' z + U k.b.b.b.b.b.b.b.b.b.b.b.b.b.",
"b.b.b.b.b.n.b.b.b.b.b.b.b.x.y.2 # b N % * ^ l.f.j o D :.1.@.;     ; @.1.>.D X j f.l.^ * & N b 4 1 y.x.b.b.b.b.b.b.b.b.b.n.b.b.b.",
"b.b.b.b.b.b.b.b.b.b.b.b.b.b.k.k . @ @ + T k.v.s.s * F <.2.=.r     r -.2.<.F * s s.v.k.T + @ + : k k.b.b.b.b.b.b.b.n.b.b.b.b.b.b.",
"b.b.b.n.b.b.b.b.b.b.b.b.b.b.v./ 3   + U f.v.b.s.d $ F ,.4.:.Z X X M >.4.,.F + s s.v.b.d.J #   t / c.b.b.b.b.b.b.b.b.n.b.b.b.b.b.",
"b.b.b.b.b.b.b.b.b.b.b.b.b.n.b.d.K   j a.v.b.b.f.j . S ;.4.2.F 7 7 F 1.4.;.S . j f.b.n.v.a.j   Z d.b.b.b.b.b.b.b.b.b.b.b.b.b.b.b.",
"b.b.b.b.b.b.b.b.b.b.b.b.b.b.b.v.p.( a.v.b.b.n.z.T * n #.3.2.;.G F ;.3.4.#.n * T z.n.n.n.v.a.( p.v.b.b.b.b.b.b.b.b.b.b.b.b.b.b.b.",
"b.b.b.b.b.b.b.b.b.b.b.b.b.b.b.b.b.v.b.b.b.b.n.c.i.3 $ S :.2.2.1.1.2.2.:.S = 3 i.c.n.b.b.b.b.b.b.b.b.b.b.b.b.b.b.b.b.b.b.b.b.b.b.",
"b.n.b.b.b.b.b.b.b.b.b.b.b.b.b.b.b.b.b.b.b.b.n.b.l.T : 3 o.>.3.3.3.2.>.o.8 * T l.b.b.b.b.b.b.b.b.b.b.b.b.b.b.n.b.b.b.n.b.b.b.b.b.",
"b.b.b.b.b.b.b.b.b.b.b.b.b.b.b.b.b.b.b.b.b.b.b.n.b.s.U O w O.>.3.4.>.O.8 . K s.b.n.b.b.b.b.b.b.b.b.b.b.b.b.b.b.b.b.b.b.b.b.b.b.b.",
"b.b.b.b.b.b.b.b.b.b.b.b.b.b.b.b.b.b.b.b.n.b.b.b.b.v.p.Z . w +.>.>.+.8 . k a.v.b.b.b.b.b.b.b.b.b.b.b.b.b.b.b.b.b.b.b.b.b.b.b.b.b.",
"b.b.b.b.b.b.b.b.b.b.b.b.b.b.b.b.b.b.b.b.b.b.b.b.b.b.v.a.k o e o.X.e + k a.v.b.b.b.b.b.b.b.b.b.b.b.n.b.b.b.b.b.b.b.b.b.b.b.b.b.b.",
"b.b.b.b.b.b.b.b.b.b.b.b.b.b.b.b.b.b.b.b.b.b.b.b.b.b.b.v.a.j + - - + j a.c.n.b.b.b.b.b.b.b.b.n.b.b.b.b.b.b.b.b.b.b.b.b.b.b.b.b.b.",
"b.b.b.b.b.b.b.b.b.b.b.b.b.b.b.b.b.b.b.b.b.b.b.b.b.b.b.b.v.a.j o   j a.v.n.b.b.b.b.b.b.n.b.b.b.b.b.b.b.b.b.b.b.b.b.b.b.b.b.b.b.n.",
"b.b.b.b.b.b.b.b.b.b.b.b.b.b.b.b.b.b.b.b.b.b.b.b.b.b.b.b.b.v.p.Y Y p.v.b.b.b.b.b.b.b.b.b.b.b.b.b.b.b.b.b.b.b.b.b.b.b.b.b.b.b.b.b.",
"b.b.b.b.b.b.b.b.b.b.b.b.b.b.b.b.b.b.b.b.b.b.b.b.b.b.b.b.b.b.v.z.z.v.b.b.b.b.b.b.b.b.b.b.b.b.b.b.b.b.b.b.b.b.b.b.b.n.b.b.b.b.b.b."
};
