/* XPM */
static char *result[] = {
/* columns rows colors chars-per-pixel */
"64 64 8 1 ",
"  c #243037",
". c #537C9D",
"X c #8C338C",
"o c #6090B8",
"O c #D2B894",
"+ c #F8D8AE",
"@ c #528054", 
"# c #528054",
/* pixels */
"################################################################",
"################################################################",
"################################################################",
"################################################################",
"################################################################",
"################################################################",
"################################################################",
"################################################################",
"#############                                 ##################",
"#############                                 ##################",
"#############                                 ##################",
"##########      .........   oooooooooooooooooo   ###############",
"##########      .........   oooooooooooooooooo   ###############",
"##########      .........   oooooooooooooooooo   ###############",
"#######   XXX   ...###   ###...oooooooooooooooooo   ############",
"#######   XXX   ...###   ###...oooooooooooooooooo   ############",
"#######   XXX   ...###   ###...oooooooooooooooooo   ############",
"#######   XXX   ...###   ###...ooo   ooooooooo      ############",
"#######   XXX   ...###   ###...ooo   ooooooooo      ############",
"#######   XXX   ...###   ###...ooo   ooooooooo      ############",
"#######         ...###   ###...oooooooooooooooooo   ############",
"#######         ...###   ###...oooooooooooooooooo   ############",
"#######         ...###   ###...oooooooooooooooooo   ############",
"##########   XXX   ............oooooooooooooooooo   ############",
"##########   XXX   ............oooooooooooooooooo   ############",
"##########   XXX   ............oooooooooooooooooo   ############",
"##########   XXX   ............oooooooooooooooooo   ############",
"##########   XXX   ............oooooooooooooooooo   ############",
"##########   XXX   ............oooooooooooooooooo   ############",
"##########         ...............ooo               ############",
"##########         ...............ooo               ############",
"##########         ...............ooo               ############",
"################      ......oooooooooooo   #####################",
"################      ......oooooooooooo   #####################",
"################      ......oooooooooooo   #####################",
"###################   ...OOO++++++++++++   #####################",
"###################   ...OOO++++++++++++   #####################",
"###################   ...OOO++++++++++++   #####################",
"#############         ...OOO++++++++++++   #####################",
"#############         ...OOO++++++++++++   #####################",
"#############         ...OOO++++++++++++   #####################",
"#############   oooooo...OOO++++++++++++      ##################",
"#############   oooooo...OOO++++++++++++      ##################",
"#############   oooooo...OOO++++++++++++      ##################",
"#############      .........oooOOOOOOoooooo   ##################",
"#############      .........oooOOOOOOoooooo   ##################",
"#############      .........oooOOOOOOoooooo   ##################",
"################      ...oooooooooooo......   ##################",
"###############@      ...oooooooooooo......   ##################",
"###########@@@@@      ...oooooooooooo......   @@@###############",
"#########@@@@@@@@@@   ...ooo               @@@@@@@@#############",
"#######@@@@@@@@@@@@   ...ooo               @@@@@@@@@@###########",
"######@@@@@@@@@@@@@   ...ooo               @@@@@@@@@@@##########",
"####@@@@@@@@@@@@@@@   ...   @@@@@@@@@@@@@@@@@@@@@@@@@@@@########",
"####@@@@@@@@@@@@@@@   ...   @@@@@@@@@@@@@@@@@@@@@@@@@@@@########",
"###@@@@@@@@@@@@@@@@   ...   @@@@@@@@@@@@@@@@@@@@@@@@@@@@@#######",
"###@@@@@@@@@@@@@@@@      @@@@@@@@@@@@@@@@@@@@@@@@@@@@@@@@#######",
"###@@@@@@@@@@@@@@@@      @@@@@@@@@@@@@@@@@@@@@@@@@@@@@@@@#######",
"####@@@@@@@@@@@@@@@      @@@@@@@@@@@@@@@@@@@@@@@@@@@@@@@@#######",
"####@@@@@@@@@@@@@@@@@@@@@@@@@@@@@@@@@@@@@@@@@@@@@@@@@@@@########",
"#####@@@@@@@@@@@@@@@@@@@@@@@@@@@@@@@@@@@@@@@@@@@@@@@@@@#########",
"######@@@@@@@@@@@@@@@@@@@@@@@@@@@@@@@@@@@@@@@@@@@@@@@@##########",
"########@@@@@@@@@@@@@@@@@@@@@@@@@@@@@@@@@@@@@@@@@@@@############",
"##########@@@@@@@@@@@@@@@@@@@@@@@@@@@@@@@@@@@@@@@@##############"
};
