/* XPM */
static char *result[] = {
/* columns rows colors chars-per-pixel */
"64 64 88 1 ",
"  c #2D5327",
". c #2E542A",
"X c #31562E",
"o c #325B2D",
"O c #335731",
"+ c #345A33",
"@ c #395E35",
"# c #375B38",
"$ c #395D3B",
"% c #376134",
"& c #3B6536",
"* c #3D6936",
"= c #3D633C",
"- c #3E693B",
"; c #426E2D",
": c #416E34",
"> c #416C3E",
", c #427133",
"< c #497336",
"1 c #4E7A34",
"2 c #45723C",
"3 c #4B743D",
"4 c #4D793C",
"5 c #517E37",
"6 c #527D3B",
"7 c #3D5F40",
"8 c #3E6241",
"9 c #416644",
"0 c #446B44",
"q c #496E45",
"w c #466D49",
"e c #486F49",
"r c #457241",
"t c #4A7344",
"y c #47704B",
"u c #4B744B",
"i c #4D7A4D",
"p c #507847",
"a c #50774C",
"s c #517C4D",
"d c #587F4A",
"f c #4E7C50",
"g c #507750",
"h c #517E53",
"j c #56823C",
"k c #5B853D",
"l c #5E883E",
"z c #618B3F",
"x c #548143",
"c c #5B8347",
"v c #5C8944",
"b c #55814E",
"n c #5C854B",
"m c #5E894D",
"M c #528054",
"N c #598653",
"B c #5D8953",
"V c #5D875F",
"C c #5E885F",
"Z c #628D43",
"A c #60874A",
"S c #628C4E",
"D c #669145",
"F c #6A9546",
"G c #65904E",
"H c #6C954D",
"J c #6E984D",
"K c #739D4D",
"L c #628E52",
"P c #669152",
"I c #6A9552",
"U c #6E9951",
"Y c #6D955F",
"T c #739D51",
"R c #739A5F",
"E c #76A04F",
"W c #79A24F",
"Q c #77A051",
"! c #79A251",
"~ c #5D8760",
"^ c #5E8860",
"/ c #648D60",
"( c #6C9460",
") c #7B977D",
"_ c #7C997E",
"` c #8BA57D",
"' c #7F9B81",
"] c #7F9B81",
/* pixels */
"'Vifhfffffffffffhffhfffffffffffffffff8MMfuyiffffffffffffffffffff",
"]^MMhhhhhhhhMMMMMhhhhhMhhMhhhhMhhMMfMMMMfuwfhhMfMhfMhhMhhMhhMfMM",
"'/MMMMMMMMMMMMMMMhMMhMMhMMMMhMMMMMMMMMMMuyyufhhMMMMMMMhMMMMMMMMM",
"'^MMMMMhMMMMMMMMMMMhMMMMMMMMMMMMMMMMMMM8wuuyughMMMMMMMMMMMMMMMMM",
"]^MMMMhMMMMMMMMMMMMMhh~hMhMMMhMMMMMMMMMMyyyy8fMMMMMMMMMMMMhMMMMf",
"'/MMMMMMMhMMMMMMMhMMMhhMMMMMMMMMMMMMMMMMyyyyhhMMMMMMMhMMMMMMMMMM",
"'~MMMMMMMMMMMMMhMMMMMMMMMMMMMMMMMMMMMMMMfy8fMMMMMMMMMMMMMMMMMMMM",
"'~MMMhMMMMMMhMMhMMMhMMMMMMhMMMMMMMMMMMMMhfhhMMMMMMMhMMMhMhMMMMMM",
"'~MMMMMMhMMMMMMMMMMMMMMMMMMMMfMMMMMMMMMMfMMMMMMMMMMhMMMMMMhMMMMM",
"'VMMMMMMMMMMMMMMMhhMMMhMMMMMMMMMMhfMMMMMMMMMMMhhhMMMMMhMMMMMMMMh",
"'~MMMMMMMMhMMMMMMMhhMMMMMMMMMMMMMMMMMMMMMMMMMhMMMMMMMMMMMMMMMhMM",
"'~MMMMMMMMMMMMMhMMhhhMMMMftiitipM8fMMMMMMMMMMMMMMMMMhMhMMhMMMMMM",
"'~MMMMMMMMMMhhMMMMMNhNhhht:;:,,,**-bMMMMMfMMMMMMMMMMMMhMfMMMMMMf",
"_~MMMMMMMMMMhhMMhhMMhhhhp6kkzzlllljxiMMMMMMMMMMfhMMhMMMMMMMMMMMM",
"'~MMMMMMMMMNNMMMhMhVhhhp6FKKKKKKEEFj4bMMMMMMMMMMhMMMMMMMMMMMMMMM",
"'~MMMMMMMMMBPCMMhhhhhhp6FK!!!!!!EWEFjttbMMMMMMMMMMMMMMMMMMMMMMMM",
"'~MMMMMMMMMPUPNMMMMMhp6ZK!!!!!Q!!Q!EF6:rMMMfMMMMMMMMMMMMMhMMMMMM",
"_~MMMMMMMMMPUPMMMMhhapZKQ!!!Q!!!!Q!!Kv,>8MMfMMMMMMMMhMMMMMMMhMMM",
"_~MMMMMMMMMLUPNNMMMi3kKW!Q!Q!!!!!!!QUm2@8~MMfMMMMMMMMMMhMMMMMMMh",
"'~MMMMMMfMNPUPNLLBMi<ZWW!!!QQ!!!!!QULh0.8MMMMMMMMMMhMMMMMMhMMMMM",
"'~MMMMMMMfMPUPBIIBMt4DWW!!!QTTTUTTUINy=X-MMMMMMMMMhMMMMMMMMMMMMM",
"'~MMMMMMfMNPUPBPPBurdFW!!Q!QILBLLBBNhy7#%8MMMMMMhhMMMMMMMhMMhMMM",
"'~MMMMMMMMMPIBNNBa2rnITTTTTIBNMMffihuw9=$%8MMMMMMMMMMMMMMMMMMMMh",
"'~MMMMMMMMMNBNMha34iNBLBBBLNNhffew00999w0%%riMMMMMMMMhhMMMhMMMMM",
")~MMMMMMMMMMMhMi35ZLNMMMMMMMMMMfw00999wuM8%%8MMMMMMMMMMMhMMMMMhM",
"_~MMMMMMMMMMhhMi:kKTPMMMMMfMMMMfguuuuuuhM8+.8MMMMMMMMMMMMMhMMMMM",
"'~MMMffMfMMMhMMi,jJTILNNNNNNBNNNNNNNNNMMM8#+rMMMMMMMMMMMMMhMMMMM",
"_~MMMMMMMMMMMMMi:tGTQUIIIIIIIIIIIIUIPBVMM87#-iMMMMMMMMMMMMMMMfMM",
"_/MMMMMMMMMMMMhi-rmU!!QQQQQQQQQQQ!!TUBNfM88%o%yMMMMMMMMMMMMM~MMf",
"`(BMMMMMMMMMhhgrrfNU!!!!!Q!!!!!Q!!!TPNMu8888#o88fMMMMMMMMMNB~~MM",
"`QPBMMMMMMMMhit3iMNIQTQQ!!!!!!!QTTUPNhfw87777#o7fMMMMMMMMMNBIP~M",
"`(YPNMMMMMMMst6vGNNNBPIT!!!!!!!QIPLNhfw8777777.oyMMMMMMMMNPIPPIB",
"_(IINMMMMMMM2,zEUINMMNBUTTTTTTUPNhffgw989998w7XoiMMMMMMfMNPILPIP",
"`RILMMiMbMMM2jJWQUPMfMNBLLLLLLLBuwwww999uuuuw8X%iMMMMMMMMNBPIPLB",
"`QBMMMMMMMMM2jJW!QUPNMMMMNMMhNMhy099909efffhfw#%yfMMMMMMMMMBIPNM",
"](NMMMMMMMMb*jJQ!QQILNhhMffhhhhhuyuuuuugMMMMfu8&-ifMMMfMMMMNBBMM",
"'/MMMMMMMMMi2jFQ!!QQUBNNMMhMMMMMhffhhMNNNNNMMhu=O=MMMMMMMMMMMMMM",
"_^MMMMMMMMMb-2mUQ!!QTUIPLMMMMMMMMhhhMLPIIIPNMfu8.+iMMMMMMMMMMMMM",
"'~MMMMMMMMMM--bU!!!!T!QTIBMMhMhMNNNNBITT!QUPNMu=X%iMMMMMMMMMMMMM",
"_~MMMMfMMMMi-&bIQ!!!!!!!TIBMhMMNLPIPIT!!!QQUPNu9X%iMMMMMMMMMMMMM",
")~MMMMMMMMMi2-aSTQ!!!!!!!TISNNNLUQQQT!!!!!TTPnu8X%iMMMMMfMMMMMMM",
"_~MMMMMMMMfr3rydPT!!!!!!!TTIPPIUT!!!!!!!!!TIBu97#+8fMMMMMMMMMMMM",
"_CMMMMMMNh4*5cuuNPTTTTTTTTT!TT!!!!!!!!TTTTUBgw998#O8fMMMMMMMMMMM",
"_CMMMMMMMM2*zJnpybPLLLLPLPTT!!!!!!!!TULLLLBaewuuw%.%fMMMMMMMMMMM",
"_~MMMMMMMi21DKHnushhshshgNLTTTTTTTTTHLNfahfeeghhy= %fMMMMMMMfMMM",
"_~MMMMMMMMr*nUTUShiuwww0wubLLPLLPPPBntewwwweufMhu8.=fMMMMMMMMMMM",
"_VMMMMMMMM-&sPTTTLhe999990yfhsghhghu099999wufMhfw8$efMMMMfMMMMMM",
"_VMMMMMMMM0%tBPTTULiuweuywwwwwwwwww879wweuuhMhhy=8ghMMMMMMMMMMMM",
"_~MMMMMMMMy&8iNIUUINMMNMbbatqqqqqqqqqubNMMMMMMu8O%iMMMMMMMMMMMMM",
"_CMMMMMMMMfy-rbBPPBNNPIIPPSAAnAAAAnnASPIGNMMff8#.@iMMMMhhMMMhMMM",
"_~MMMMMMMMMfi--bMMffNITTTTTHJUUHJJUUTTUUHNifu8$+O0fMMMMhhMMMhMMM",
"_~MMMMMMMMMMft-8fuwysSPPPPPPPPPPPLPPPPPSxiyyy8+X0fMMMMMMMMMMMMMh",
"_~MMMMMMMMMMMfy---%%8uibhshbhdMMdhhhhha0==$$#++8ahhhMhMMMMMMMMMh",
"_~MMMMMMMMMMMMh0%...o%-yywwwwwwwww0qewq=X.   .8fhhMhMMMMMMMMMMMM",
"_~MMMMMMhMhMMMhg8-&&--08$#$$$#$%$@$$##=0--*&88yhhhMMMMMMhMhMMMMh",
"_~MMMMMMMMMMMMMMfibibMu=........X..X..$uiiiffhMhhhMMMMhhhMMMMhMM",
"'~MMhMMMMMMMMMMMMMMMMMfy&**-*-&**&-*&&0hMMhhMMMhhMMMhMMMMMMMMMMM",
"'~MMMMMMMMMMMMMMMMMMMMMMbmbiiiiMiiiiiihMMMhhhMhMMMMMMMMMMMMMMMMh",
"'~MMMMMMfMMMMMMMMMMMMMMNLIPNNMMMMMMMMMhMMMMMMMMMMhMMMhMMMhMMhMMh",
"'~MhMMMMMMMMMMMMMMMMMMNPIPPPNMMMMMMMMMMMMhMMMMMMMhhhMMMMMMMMMMMM",
")~ffhMMMMMMMfMMMMfMMfNBIPPPIBMMMMMMMMMMhMMMMMMMMhhhhMMMMMMMMMMMM",
"'~MMMMMMMMMMMMMMMMMMMMBPPPPPNMMMMMMMMMMhMMMMMhMMM~MMMMMhMMMhhMMM",
"'~MMMMhMMMMMMMMMMMMMMMMNPILNMMMMMhMMMMMhhMMMMMMMMMMMMMMMMMMMMMMM",
"'~MMMMMMMMMMfMMMMMMMMMhMBPBMhhMMMMMMMMMMMMMMMhMMhMMMMMMMMMMhhMMh"
};
